:SAMPLES-PER-SECOND 30
:FULLY-SPECIFIED
:DEGREES
67
root  -2.32345 37.904 13.2805 -177.369 6.2446 175.825
RightUpLeg  -12.0153 -13.1912 -16.7154
RightLeg  40.4489 -8.46493 -7.93819
RightFoot  -6.53218 -1.17604 26.4846
RightToes  -1.39699e-009 0 -3.6325e-017
Spine  20.0122 5.86384 6.27001
Spine1  19.6349 14.7351 -19.0313
HEad  -17.4946 -3.25984 8.55462
LeftShoulder1  2.03797 -4.35368 -19.4464
LeftArm  -1.12381 26.2554 -43.4004
LeftForeArm  45.2514 -77.7159 -61.569
LeftHand  -1.94875 -1.94042 30.4611
RightShoulder  0.597906 1.04779 5.4102
RightArm  20.0149 36.0346 68.9977
RightForeArm  61.9351 78.6895 64.3075
RightHand  -1.45773 5.16147 -16.2451
LeftUpLeg  -26.5146 -15.7698 9.61727
LeftLeg  26.4229 -3.81818 -1.71899
LeftFoot  -2.31478 1.28082 -15.9723
LeftToes  3.40148e-010 1.80944e-010 1.01921e-010
68
root  -1.9414 38.0557 13.5221 -177.726 6.74161 176.398
RightUpLeg  -10.6786 -12.6481 -15.4227
RightLeg  38.0535 -8.12746 -7.03594
RightFoot  -7.85108 -0.863466 26.127
RightToes  -1.39699e-009 0 -3.6325e-017
Spine  18.5726 5.642 4.95037
Spine1  20.0788 13.3367 -16.5399
HEad  -17.7648 -2.82879 7.37288
LeftShoulder1  1.8778 -3.84441 -19.0324
LeftArm  0.198092 27.9021 -44.4274
LeftForeArm  49.4467 -78.125 -65.3831
LeftHand  -1.82652 -1.77178 29.2846
RightShoulder  0.723419 0.923204 8.98475
RightArm  19.7504 26.83 68.2235
RightForeArm  68.655 79.2306 72.9328
RightHand  -1.22693 4.61781 -14.4498
LeftUpLeg  -25.5284 -15.2394 10.5395
LeftLeg  25.0977 -1.97151 -0.666437
LeftFoot  -0.689906 1.55908 -16.59
LeftToes  3.40148e-010 1.80944e-010 1.01921e-010
69
root  -1.60696 38.0399 13.828 -178.441 8.00774 176.782
RightUpLeg  -9.80442 -12.9558 -14.5056
RightLeg  36.7078 -7.49948 -6.22581
RightFoot  -10.0416 -0.35868 24.9438
RightToes  -1.39699e-009 0 -3.6325e-017
Spine  17.4865 5.24413 3.5761
Spine1  20.2874 11.7691 -14.0742
HEad  -17.7305 -1.34253 5.63756
LeftShoulder1  1.70107 -3.23617 -18.6891
LeftArm  1.52509 28.409 -45.4039
LeftForeArm  55.1679 -78.5566 -70.0686
LeftHand  -1.72498 -1.77472 27.716
RightShoulder  0.837069 0.869339 12.1041
RightArm  18.54 19.0346 66.4138
RightForeArm  79.1862 79.5554 86.0668
RightHand  -0.993158 3.77185 -12.7839
LeftUpLeg  -24.3364 -13.3947 11.1281
LeftLeg  24.5087 -1.29562 -0.309122
LeftFoot  -0.340342 1.64942 -17.0055
LeftToes  3.40148e-010 1.80944e-010 1.01921e-010
70
root  -1.3444 37.8789 14.1879 -179.398 10.3152 177.078
RightUpLeg  -9.92875 -13.4813 -13.7719
RightLeg  36.9005 -6.47939 -5.46036
RightFoot  -12.3884 0.124204 22.7027
RightToes  -1.39699e-009 0 -3.6325e-017
Spine  16.9303 4.71534 2.51578
Spine1  20.1862 10.3182 -12.151
HEad  -17.7025 1.18657 3.35111
LeftShoulder1  1.52122 -2.55633 -18.54
LeftArm  2.74413 27.739 -46.1308
LeftForeArm  60.9203 -78.8892 -74.113
LeftHand  -1.6006 -1.75872 25.844
RightShoulder  0.946038 1.00181 14.1737
RightArm  16.9551 12.7378 64.4746
RightForeArm  93.0778 79.3636 100.825
RightHand  -0.732306 2.83522 -10.5313
LeftUpLeg  -22.9614 -10.9764 11.7711
LeftLeg  24.6257 -1.18554 -0.25879
LeftFoot  -1.36029 1.54609 -17.5037
LeftToes  3.40148e-010 1.80944e-010 1.01921e-010
71
root  -1.15162 37.6085 14.5664 179.54 13.0643 177.258
RightUpLeg  -10.7919 -13.6067 -13.2254
RightLeg  38.4002 -5.1729 -4.65726
RightFoot  -14.5354 0.480142 20.5396
RightToes  -1.39699e-009 0 -3.6325e-017
Spine  16.7274 4.06322 1.46352
Spine1  20.113 8.81123 -10.4241
HEad  -18.0135 4.59731 0.510341
LeftShoulder1  1.42549 -2.15173 -18.6462
LeftArm  3.61352 25.7225 -46.5858
LeftForeArm  63.7484 -79.0262 -75.3361
LeftHand  -1.43805 -1.54306 24.0071
RightShoulder  1.02537 1.21888 14.9615
RightArm  14.7992 7.80538 62.9915
RightForeArm  105.443 78.582 113.731
RightHand  -0.549287 2.17625 -8.63079
LeftUpLeg  -21.7263 -9.13198 12.557
LeftLeg  25.4927 -0.825126 -0.0907313
LeftFoot  -3.61001 1.23863 -17.8793
LeftToes  3.40148e-010 1.80944e-010 1.01921e-010
72
root  -1.02738 37.2966 14.9202 178.363 15.2672 177.31
RightUpLeg  -11.5058 -13.3652 -12.956
RightLeg  40.2777 -4.11193 -4.01705
RightFoot  -16.485 0.759304 19.2263
RightToes  -1.39699e-009 0 -3.6325e-017
Spine  16.4818 3.1542 0.0274857
Spine1  20.6571 6.86898 -8.33789
HEad  -18.7035 8.68045 -2.47055
LeftShoulder1  1.47257 -2.27577 -18.9394
LeftArm  3.85674 22.2187 -46.8833
LeftForeArm  61.2906 -78.8833 -72.2988
LeftHand  -1.29459 -1.18938 22.813
RightShoulder  1.10782 1.55128 15.1764
RightArm  12.3112 4.63511 61.3603
RightForeArm  113.558 77.2596 124.266
RightHand  -0.518674 1.8159 -8.52874
LeftUpLeg  -20.7954 -8.41983 13.2294
LeftLeg  26.974 -0.758331 -0.0820078
LeftFoot  -6.72173 0.769242 -17.9436
LeftToes  3.40148e-010 1.80944e-010 1.01921e-010
73
root  -0.997325 37.0363 15.2104 177.006 16.7846 177.258
RightUpLeg  -11.4903 -12.9097 -12.9607
RightLeg  41.5754 -3.66827 -3.77929
RightFoot  -18.188 0.979227 18.3041
RightToes  -1.39699e-009 0 -3.6325e-017
Spine  16.1429 2.0878 -1.59711
Spine1  21.7881 4.68107 -6.06985
HEad  -19.3162 12.8589 -4.90972
LeftShoulder1  1.58165 -2.66708 -19.1102
LeftArm  3.88222 17.2008 -47.2764
LeftForeArm  53.772 -78.2921 -64.6044
LeftHand  -1.21371 -0.851918 22.5403
RightShoulder  1.20535 1.91393 15.5387
RightArm  10.1664 3.1887 59.0722
RightForeArm  117.43 75.7135 131.805
RightHand  -0.62128 1.7959 -10.1805
LeftUpLeg  -19.888 -8.44914 13.4874
LeftLeg  28.9528 -2.08767 -0.915377
LeftFoot  -10.0336 0.266844 -18.1
LeftToes  3.40148e-010 1.80944e-010 1.01921e-010
74
root  -1.09512 36.9076 15.4125 175.698 18.3991 177.191
RightUpLeg  -11.0374 -11.9915 -13.0334
RightLeg  41.8164 -3.64158 -3.78281
RightFoot  -19.2224 1.06961 17.3032
RightToes  -1.39699e-009 0 -3.6325e-017
Spine  15.8388 1.21418 -2.85188
Spine1  22.817 2.89452 -4.22558
HEad  -19.3358 16.5069 -6.50782
LeftShoulder1  1.61656 -2.87533 -18.7974
LeftArm  4.29438 11.2125 -48.1657
LeftForeArm  46.2794 -77.2926 -55.5381
LeftHand  -1.1862 -0.697459 22.5792
RightShoulder  1.25962 2.07511 15.901
RightArm  8.34866 2.25534 56.7425
RightForeArm  119.533 74.4168 136.5
RightHand  -0.78758 2.19676 -12.2138
LeftUpLeg  -18.7155 -8.38542 13.3029
LeftLeg  31.5151 -4.24019 -2.45945
LeftFoot  -12.5498 -0.120875 -18.4574
LeftToes  3.40148e-010 1.80944e-010 1.01921e-010
75
root  -1.32447 36.9543 15.5174 175.122 20.7872 177.381
RightUpLeg  -10.9752 -10.5188 -12.7739
RightLeg  40.8697 -3.48413 -3.52259
RightFoot  -19.0083 0.984048 16.5079
RightToes  -1.39699e-009 0 -3.6325e-017
Spine  15.2343 0.699605 -3.32511
Spine1  23.2444 1.84802 -3.0695
HEad  -18.7786 19.5534 -7.60317
LeftShoulder1  1.55325 -2.82067 -17.9522
LeftArm  4.87536 5.58741 -49.7306
LeftForeArm  44.1992 -76.5723 -50.1003
LeftHand  -1.18608 -0.854841 22.0318
RightShoulder  1.24986 2.05575 15.7931
RightArm  6.47459 0.554702 55.1793
RightForeArm  122.288 73.3974 139.788
RightHand  -0.933567 2.74334 -13.5058
LeftUpLeg  -17.4662 -7.68436 13.0784
LeftLeg  34.3289 -5.29817 -3.51498
LeftFoot  -13.4968 -0.269188 -18.4415
LeftToes  3.40148e-010 1.80944e-010 1.01921e-010
76
root  -1.6806 37.2033 15.4962 174.804 23.6564 177.378
RightUpLeg  -10.7717 -9.2392 -13.0209
RightLeg  38.6506 -2.65688 -2.56503
RightFoot  -17.3306 0.738237 16.2767
RightToes  -1.39699e-009 0 -3.6325e-017
Spine  14.7533 0.397326 -3.70174
Spine1  23.0193 1.1595 -2.29834
HEad  -18.06 22.4048 -8.72073
LeftShoulder1  1.45112 -2.66152 -16.8442
LeftArm  5.05618 1.45907 -51.6849
LeftForeArm  46.9958 -76.7118 -49.9618
LeftHand  -1.19109 -1.21139 20.9645
RightShoulder  1.23766 2.11228 15.3067
RightArm  4.63273 -1.95961 54.3227
RightForeArm  125.556 72.4023 142.684
RightHand  -1.0084 3.12194 -13.935
LeftUpLeg  -15.4746 -7.15033 12.2435
LeftLeg  36.1439 -4.43752 -3.11054
LeftFoot  -12.9961 -0.185355 -18.0423
LeftToes  3.40148e-010 1.80944e-010 1.01921e-010
77
root  -2.12577 37.598 15.3863 175.193 26.6378 177.496
RightUpLeg  -10.822 -8.45802 -13.2407
RightLeg  35.3618 -1.67838 -1.54572
RightFoot  -14.2765 0.327073 16.4757
RightToes  -1.39699e-009 0 -3.6325e-017
Spine  13.8915 0.156289 -4.1098
Spine1  22.4708 0.492398 -1.43576
HEad  -17.4645 25.3775 -10.0301
LeftShoulder1  1.31777 -2.35244 -15.7127
LeftArm  4.95772 -1.17649 -53.7139
LeftForeArm  51.0078 -77.3831 -53.8028
LeftHand  -1.1867 -1.40234 20.3218
RightShoulder  1.24723 2.26457 14.8456
RightArm  3.21521 -4.49202 53.6881
RightForeArm  127.442 71.4273 145.008
RightHand  -1.04298 3.28377 -14.1411
LeftUpLeg  -13.4905 -6.80876 11.2656
LeftLeg  36.7946 -3.37295 -2.34182
LeftFoot  -11.9288 -0.021612 -18.0936
LeftToes  3.40148e-010 1.80944e-010 1.01921e-010
78
root  -2.64761 38.0283 15.2255 175.813 29.4293 177.518
RightUpLeg  -10.9484 -7.71083 -13.5743
RightLeg  31.6401 -1.17542 -1.02518
RightFoot  -10.532 -0.193722 16.9867
RightToes  -1.39699e-009 0 -3.6325e-017
Spine  13.1366 -0.0065128 -4.94646
Spine1  21.6135 -0.318807 -0.106235
HEad  -17.0018 28.3803 -11.3159
LeftShoulder1  1.12838 -1.75608 -14.5586
LeftArm  5.08468 -2.86439 -55.6764
LeftForeArm  55.1041 -78.1085 -59.9321
LeftHand  -1.18997 -1.37707 20.4502
RightShoulder  1.22797 2.27481 14.4344
RightArm  2.32082 -6.70366 53.2455
RightForeArm  127.637 70.6287 146.542
RightHand  -1.06149 3.26445 -14.4175
LeftUpLeg  -11.5788 -6.46589 9.95001
LeftLeg  36.7202 -3.38218 -2.33906
LeftFoot  -10.9349 0.132242 -18.7812
LeftToes  3.40148e-010 1.80944e-010 1.01921e-010
79
root  -3.2298 38.385 15.0467 176.376 31.8104 177.348
RightUpLeg  -11.1289 -6.67658 -14.1685
RightLeg  28.1179 -1.26591 -0.967414
RightFoot  -6.9687 -0.743475 18.0445
RightToes  -1.39699e-009 0 -3.6325e-017
Spine  12.7964 -0.146376 -6.13079
Spine1  20.3793 -1.23496 1.46122
HEad  -16.6238 31.0507 -12.3182
LeftShoulder1  0.915669 -1.00152 -13.3177
LeftArm  5.60339 -3.86674 -57.2907
LeftForeArm  61.2774 -78.7893 -67.943
LeftHand  -1.203 -1.4135 20.5629
RightShoulder  1.16205 2.10795 13.8364
RightArm  1.68328 -9.00378 53.226
RightForeArm  128.105 69.9148 147.845
RightHand  -1.0258 3.04617 -14.2856
LeftUpLeg  -9.8084 -5.63073 8.34637
LeftLeg  36.1043 -3.93284 -2.71211
LeftFoot  -10.309 0.231629 -18.8776
LeftToes  3.40148e-010 1.80944e-010 1.01921e-010
